<mxfile host="app.diagrams.net" modified="2024-03-18T16:36:26.336Z" agent="Mozilla/5.0 (Macintosh; Intel Mac OS X 10_15_7) AppleWebKit/537.36 (KHTML, like Gecko) Chrome/122.0.0.0 Safari/537.36" etag="OJt2LW5ndH1Idi_DpHO4" version="24.0.7" type="device">
  <diagram name="Страница — 1" id="82SCnCHfSEIXA046fM66">
    <mxGraphModel dx="1304" dy="715" grid="1" gridSize="10" guides="1" tooltips="1" connect="1" arrows="1" fold="1" page="1" pageScale="1" pageWidth="827" pageHeight="1169" math="0" shadow="0">
      <root>
        <mxCell id="0" />
        <mxCell id="1" parent="0" />
        <mxCell id="D9vonOD297P4VzLZGs3L-6" value="Клиент" style="ellipse;shape=umlEntity;whiteSpace=wrap;html=1;" parent="1" vertex="1">
          <mxGeometry x="560" y="220" width="80" height="80" as="geometry" />
        </mxCell>
        <mxCell id="D9vonOD297P4VzLZGs3L-8" value="Интерфейс&lt;div&gt;системы наград&lt;/div&gt;" style="shape=umlBoundary;whiteSpace=wrap;html=1;" parent="1" vertex="1">
          <mxGeometry x="670" y="415" width="100" height="80" as="geometry" />
        </mxCell>
        <mxCell id="D9vonOD297P4VzLZGs3L-9" value="Интерфейс&lt;div&gt;регистрации находки&lt;/div&gt;" style="shape=umlBoundary;whiteSpace=wrap;html=1;" parent="1" vertex="1">
          <mxGeometry x="760" y="605" width="100" height="80" as="geometry" />
        </mxCell>
        <mxCell id="D9vonOD297P4VzLZGs3L-10" value="Страница советов по сохранности" style="shape=umlBoundary;whiteSpace=wrap;html=1;" parent="1" vertex="1">
          <mxGeometry x="260" y="250" width="100" height="80" as="geometry" />
        </mxCell>
        <mxCell id="D9vonOD297P4VzLZGs3L-14" value="Управление системой наград" style="ellipse;shape=umlControl;whiteSpace=wrap;html=1;" parent="1" vertex="1">
          <mxGeometry x="810" y="370" width="80" height="90" as="geometry" />
        </mxCell>
        <mxCell id="D9vonOD297P4VzLZGs3L-15" value="Управление регистрацией находок" style="ellipse;shape=umlControl;whiteSpace=wrap;html=1;" parent="1" vertex="1">
          <mxGeometry x="870" y="648.75" width="90" height="96.25" as="geometry" />
        </mxCell>
        <mxCell id="D9vonOD297P4VzLZGs3L-19" value="Управление&amp;nbsp; возвратом" style="ellipse;shape=umlControl;whiteSpace=wrap;html=1;" parent="1" vertex="1">
          <mxGeometry x="920" y="505" width="70" height="80" as="geometry" />
        </mxCell>
        <mxCell id="D9vonOD297P4VzLZGs3L-26" value="Основная страница сайта" style="shape=umlBoundary;whiteSpace=wrap;html=1;" parent="1" vertex="1">
          <mxGeometry x="260" y="400" width="100" height="80" as="geometry" />
        </mxCell>
        <mxCell id="D9vonOD297P4VzLZGs3L-27" value="Система поиска" style="shape=umlBoundary;whiteSpace=wrap;html=1;" parent="1" vertex="1">
          <mxGeometry x="260" y="540" width="100" height="80" as="geometry" />
        </mxCell>
        <mxCell id="D9vonOD297P4VzLZGs3L-28" value="Поисковый движок" style="ellipse;shape=umlControl;whiteSpace=wrap;html=1;" parent="1" vertex="1">
          <mxGeometry x="275" y="642.75" width="70" height="80" as="geometry" />
        </mxCell>
        <mxCell id="D9vonOD297P4VzLZGs3L-31" value="&lt;font style=&quot;font-size: 10px;&quot;&gt;Потерянные вещи по результатам поиска&lt;/font&gt;" style="ellipse;shape=umlEntity;whiteSpace=wrap;html=1;" parent="1" vertex="1">
          <mxGeometry x="390" y="642.75" width="80" height="80" as="geometry" />
        </mxCell>
        <mxCell id="D9vonOD297P4VzLZGs3L-32" value="" style="endArrow=diamondThin;html=1;rounded=0;exitX=0.575;exitY=0;exitDx=0;exitDy=0;exitPerimeter=0;endFill=1;endSize=13;entryX=0.592;entryY=0.979;entryDx=0;entryDy=0;entryPerimeter=0;" parent="1" source="D9vonOD297P4VzLZGs3L-27" target="D9vonOD297P4VzLZGs3L-26" edge="1">
          <mxGeometry width="50" height="50" relative="1" as="geometry">
            <mxPoint x="1050" y="532.75" as="sourcePoint" />
            <mxPoint x="1079.9999999999998" y="322.75" as="targetPoint" />
          </mxGeometry>
        </mxCell>
        <mxCell id="D9vonOD297P4VzLZGs3L-33" value="" style="endArrow=open;html=1;rounded=0;exitX=0.567;exitY=1;exitDx=0;exitDy=0;exitPerimeter=0;entryX=0.56;entryY=0.08;entryDx=0;entryDy=0;entryPerimeter=0;endFill=0;endSize=12;" parent="1" source="D9vonOD297P4VzLZGs3L-27" target="D9vonOD297P4VzLZGs3L-28" edge="1">
          <mxGeometry width="50" height="50" relative="1" as="geometry">
            <mxPoint x="1050" y="532.75" as="sourcePoint" />
            <mxPoint x="1100" y="482.75" as="targetPoint" />
          </mxGeometry>
        </mxCell>
        <mxCell id="D9vonOD297P4VzLZGs3L-34" value="" style="endArrow=open;html=1;rounded=0;strokeColor=default;align=center;verticalAlign=middle;fontFamily=Helvetica;fontSize=11;fontColor=default;labelBackgroundColor=default;endSize=12;exitX=1.001;exitY=0.539;exitDx=0;exitDy=0;exitPerimeter=0;entryX=0.01;entryY=0.57;entryDx=0;entryDy=0;dashed=1;endFill=0;entryPerimeter=0;" parent="1" source="D9vonOD297P4VzLZGs3L-28" target="D9vonOD297P4VzLZGs3L-31" edge="1">
          <mxGeometry width="50" height="50" relative="1" as="geometry">
            <mxPoint x="1010" y="582.75" as="sourcePoint" />
            <mxPoint x="1060" y="532.75" as="targetPoint" />
          </mxGeometry>
        </mxCell>
        <mxCell id="bAYn-XJrjukU36yBKhSO-4" value="" style="endArrow=diamondThin;html=1;rounded=0;endFill=1;endSize=13;entryX=0.532;entryY=0.026;entryDx=0;entryDy=0;entryPerimeter=0;" parent="1" edge="1">
          <mxGeometry width="50" height="50" relative="1" as="geometry">
            <mxPoint x="318" y="330" as="sourcePoint" />
            <mxPoint x="318.15000000000003" y="400.00000000000017" as="targetPoint" />
          </mxGeometry>
        </mxCell>
        <mxCell id="bAYn-XJrjukU36yBKhSO-11" value="Форма авторизации" style="shape=umlBoundary;whiteSpace=wrap;html=1;" parent="1" vertex="1">
          <mxGeometry x="430" y="330" width="100" height="80" as="geometry" />
        </mxCell>
        <mxCell id="bAYn-XJrjukU36yBKhSO-12" value="Форма регистрации" style="shape=umlBoundary;whiteSpace=wrap;html=1;" parent="1" vertex="1">
          <mxGeometry x="430" y="417.25" width="100" height="80" as="geometry" />
        </mxCell>
        <mxCell id="bAYn-XJrjukU36yBKhSO-13" value="" style="endArrow=diamondThin;html=1;rounded=0;exitX=0.158;exitY=0.472;exitDx=0;exitDy=0;exitPerimeter=0;endFill=1;endSize=13;entryX=0.985;entryY=0.368;entryDx=0;entryDy=0;entryPerimeter=0;" parent="1" source="bAYn-XJrjukU36yBKhSO-11" target="D9vonOD297P4VzLZGs3L-26" edge="1">
          <mxGeometry width="50" height="50" relative="1" as="geometry">
            <mxPoint x="659.5200000000002" y="522.0999999999999" as="sourcePoint" />
            <mxPoint x="610.0699999999999" y="523.1800000000001" as="targetPoint" />
          </mxGeometry>
        </mxCell>
        <mxCell id="bAYn-XJrjukU36yBKhSO-14" value="" style="endArrow=diamondThin;html=1;rounded=0;exitX=0.058;exitY=0.493;exitDx=0;exitDy=0;exitPerimeter=0;endFill=1;endSize=13;entryX=0.995;entryY=0.618;entryDx=0;entryDy=0;entryPerimeter=0;" parent="1" source="bAYn-XJrjukU36yBKhSO-12" target="D9vonOD297P4VzLZGs3L-26" edge="1">
          <mxGeometry width="50" height="50" relative="1" as="geometry">
            <mxPoint x="666" y="488" as="sourcePoint" />
            <mxPoint x="530" y="580" as="targetPoint" />
          </mxGeometry>
        </mxCell>
        <mxCell id="bAYn-XJrjukU36yBKhSO-15" value="Контролер&lt;div&gt;пользоватлей&lt;/div&gt;" style="ellipse;shape=umlControl;whiteSpace=wrap;html=1;" parent="1" vertex="1">
          <mxGeometry x="580" y="341.38" width="90" height="97.25" as="geometry" />
        </mxCell>
        <mxCell id="bAYn-XJrjukU36yBKhSO-16" value="" style="endArrow=open;html=1;rounded=0;exitX=1.006;exitY=0.645;exitDx=0;exitDy=0;exitPerimeter=0;entryX=0.047;entryY=0.354;entryDx=0;entryDy=0;entryPerimeter=0;endFill=0;endSize=12;" parent="1" source="bAYn-XJrjukU36yBKhSO-11" target="bAYn-XJrjukU36yBKhSO-15" edge="1">
          <mxGeometry width="50" height="50" relative="1" as="geometry">
            <mxPoint x="579" y="378" as="sourcePoint" />
            <mxPoint x="613" y="344" as="targetPoint" />
          </mxGeometry>
        </mxCell>
        <mxCell id="bAYn-XJrjukU36yBKhSO-17" value="" style="endArrow=open;html=1;rounded=0;exitX=1.027;exitY=0.441;exitDx=0;exitDy=0;exitPerimeter=0;entryX=0.029;entryY=0.831;entryDx=0;entryDy=0;entryPerimeter=0;endFill=0;endSize=12;" parent="1" source="bAYn-XJrjukU36yBKhSO-12" target="bAYn-XJrjukU36yBKhSO-15" edge="1">
          <mxGeometry width="50" height="50" relative="1" as="geometry">
            <mxPoint x="751" y="502" as="sourcePoint" />
            <mxPoint x="807" y="525" as="targetPoint" />
          </mxGeometry>
        </mxCell>
        <mxCell id="bAYn-XJrjukU36yBKhSO-18" value="" style="endArrow=open;html=1;rounded=0;strokeColor=default;align=center;verticalAlign=middle;fontFamily=Helvetica;fontSize=11;fontColor=default;labelBackgroundColor=default;endSize=12;exitX=0.496;exitY=0.084;exitDx=0;exitDy=0;exitPerimeter=0;entryX=0.5;entryY=1;entryDx=0;entryDy=0;dashed=1;endFill=0;" parent="1" source="bAYn-XJrjukU36yBKhSO-15" target="D9vonOD297P4VzLZGs3L-6" edge="1">
          <mxGeometry width="50" height="50" relative="1" as="geometry">
            <mxPoint x="664" y="294" as="sourcePoint" />
            <mxPoint x="694" y="249" as="targetPoint" />
          </mxGeometry>
        </mxCell>
        <mxCell id="bAYn-XJrjukU36yBKhSO-19" value="Список потерянных вещей" style="shape=umlBoundary;whiteSpace=wrap;html=1;" parent="1" vertex="1">
          <mxGeometry x="430" y="535.5" width="100" height="80" as="geometry" />
        </mxCell>
        <mxCell id="bAYn-XJrjukU36yBKhSO-20" value="" style="endArrow=diamondThin;html=1;rounded=0;exitX=0.201;exitY=0.289;exitDx=0;exitDy=0;exitPerimeter=0;endFill=1;endSize=13;entryX=0.827;entryY=0.974;entryDx=0;entryDy=0;entryPerimeter=0;" parent="1" source="bAYn-XJrjukU36yBKhSO-19" target="D9vonOD297P4VzLZGs3L-26" edge="1">
          <mxGeometry width="50" height="50" relative="1" as="geometry">
            <mxPoint x="484" y="665" as="sourcePoint" />
            <mxPoint x="440" y="590" as="targetPoint" />
          </mxGeometry>
        </mxCell>
        <mxCell id="bAYn-XJrjukU36yBKhSO-21" value="" style="endArrow=open;html=1;rounded=0;exitX=1.017;exitY=0.479;exitDx=0;exitDy=0;exitPerimeter=0;entryX=0.183;entryY=0.525;entryDx=0;entryDy=0;entryPerimeter=0;endFill=0;endSize=12;" parent="1" source="D9vonOD297P4VzLZGs3L-27" target="bAYn-XJrjukU36yBKhSO-19" edge="1">
          <mxGeometry width="50" height="50" relative="1" as="geometry">
            <mxPoint x="681" y="514" as="sourcePoint" />
            <mxPoint x="717" y="526" as="targetPoint" />
          </mxGeometry>
        </mxCell>
        <mxCell id="bAYn-XJrjukU36yBKhSO-22" value="Интерфейс авторизованного пользователя" style="shape=umlBoundary;whiteSpace=wrap;html=1;" parent="1" vertex="1">
          <mxGeometry x="600" y="536.38" width="120" height="99.99" as="geometry" />
        </mxCell>
        <mxCell id="bAYn-XJrjukU36yBKhSO-25" value="" style="endArrow=diamondThin;html=1;rounded=0;endFill=1;endSize=13;exitX=0.369;exitY=0.949;exitDx=0;exitDy=0;exitPerimeter=0;" parent="1" source="D9vonOD297P4VzLZGs3L-8" edge="1">
          <mxGeometry width="50" height="50" relative="1" as="geometry">
            <mxPoint x="709" y="419" as="sourcePoint" />
            <mxPoint x="680" y="535" as="targetPoint" />
          </mxGeometry>
        </mxCell>
        <mxCell id="bAYn-XJrjukU36yBKhSO-26" value="" style="endArrow=open;html=1;rounded=0;exitX=0.987;exitY=0.29;exitDx=0;exitDy=0;exitPerimeter=0;entryX=-0.005;entryY=0.652;entryDx=0;entryDy=0;entryPerimeter=0;endFill=0;endSize=12;" parent="1" source="D9vonOD297P4VzLZGs3L-8" target="D9vonOD297P4VzLZGs3L-14" edge="1">
          <mxGeometry width="50" height="50" relative="1" as="geometry">
            <mxPoint x="276" y="787" as="sourcePoint" />
            <mxPoint x="327" y="801" as="targetPoint" />
          </mxGeometry>
        </mxCell>
        <mxCell id="bAYn-XJrjukU36yBKhSO-27" value="Находка" style="ellipse;shape=umlEntity;whiteSpace=wrap;html=1;" parent="1" vertex="1">
          <mxGeometry x="1009.5" y="595" width="80" height="80" as="geometry" />
        </mxCell>
        <mxCell id="bAYn-XJrjukU36yBKhSO-28" value="Система наград" style="ellipse;shape=umlEntity;whiteSpace=wrap;html=1;" parent="1" vertex="1">
          <mxGeometry x="939.5" y="370" width="70" height="67.25" as="geometry" />
        </mxCell>
        <mxCell id="bAYn-XJrjukU36yBKhSO-29" value="" style="endArrow=open;html=1;rounded=0;strokeColor=default;align=center;verticalAlign=middle;fontFamily=Helvetica;fontSize=11;fontColor=default;labelBackgroundColor=default;endSize=12;exitX=1.007;exitY=0.571;exitDx=0;exitDy=0;exitPerimeter=0;dashed=1;endFill=0;entryX=-0.006;entryY=0.615;entryDx=0;entryDy=0;entryPerimeter=0;" parent="1" source="D9vonOD297P4VzLZGs3L-14" target="bAYn-XJrjukU36yBKhSO-28" edge="1">
          <mxGeometry width="50" height="50" relative="1" as="geometry">
            <mxPoint x="380" y="831" as="sourcePoint" />
            <mxPoint x="1066" y="308" as="targetPoint" />
          </mxGeometry>
        </mxCell>
        <mxCell id="bAYn-XJrjukU36yBKhSO-36" value="" style="endArrow=diamondThin;html=1;rounded=0;exitX=0.153;exitY=0.434;exitDx=0;exitDy=0;exitPerimeter=0;endFill=1;endSize=13;entryX=0.987;entryY=0.728;entryDx=0;entryDy=0;entryPerimeter=0;" parent="1" source="D9vonOD297P4VzLZGs3L-9" target="bAYn-XJrjukU36yBKhSO-22" edge="1">
          <mxGeometry width="50" height="50" relative="1" as="geometry">
            <mxPoint x="764" y="492" as="sourcePoint" />
            <mxPoint x="709" y="551" as="targetPoint" />
          </mxGeometry>
        </mxCell>
        <mxCell id="bAYn-XJrjukU36yBKhSO-37" value="" style="endArrow=open;html=1;rounded=0;exitX=0.943;exitY=0.803;exitDx=0;exitDy=0;exitPerimeter=0;entryX=0.071;entryY=0.344;entryDx=0;entryDy=0;entryPerimeter=0;endFill=0;endSize=12;" parent="1" source="D9vonOD297P4VzLZGs3L-9" target="D9vonOD297P4VzLZGs3L-15" edge="1">
          <mxGeometry width="50" height="50" relative="1" as="geometry">
            <mxPoint x="815" y="427" as="sourcePoint" />
            <mxPoint x="834" y="399" as="targetPoint" />
          </mxGeometry>
        </mxCell>
        <mxCell id="bAYn-XJrjukU36yBKhSO-38" value="" style="endArrow=open;html=1;rounded=0;strokeColor=default;align=center;verticalAlign=middle;fontFamily=Helvetica;fontSize=11;fontColor=default;labelBackgroundColor=default;endSize=12;exitX=1.019;exitY=0.454;exitDx=0;exitDy=0;exitPerimeter=0;entryX=0.065;entryY=0.729;entryDx=0;entryDy=0;dashed=1;endFill=0;entryPerimeter=0;" parent="1" source="D9vonOD297P4VzLZGs3L-15" target="bAYn-XJrjukU36yBKhSO-27" edge="1">
          <mxGeometry width="50" height="50" relative="1" as="geometry">
            <mxPoint x="949.9999999999998" y="715.905" as="sourcePoint" />
            <mxPoint x="1016.4357287525384" y="644.9957287525381" as="targetPoint" />
          </mxGeometry>
        </mxCell>
        <mxCell id="bAYn-XJrjukU36yBKhSO-39" value="Интерфейс&lt;div&gt;возврата утерянной вещи&lt;/div&gt;" style="shape=umlBoundary;whiteSpace=wrap;html=1;" parent="1" vertex="1">
          <mxGeometry x="780" y="515" width="100" height="80" as="geometry" />
        </mxCell>
        <mxCell id="bAYn-XJrjukU36yBKhSO-40" value="" style="endArrow=diamondThin;html=1;rounded=0;exitX=0.115;exitY=0.512;exitDx=0;exitDy=0;exitPerimeter=0;endFill=1;endSize=13;entryX=1.012;entryY=0.396;entryDx=0;entryDy=0;entryPerimeter=0;" parent="1" source="bAYn-XJrjukU36yBKhSO-39" target="bAYn-XJrjukU36yBKhSO-22" edge="1">
          <mxGeometry width="50" height="50" relative="1" as="geometry">
            <mxPoint x="764" y="492" as="sourcePoint" />
            <mxPoint x="709" y="551" as="targetPoint" />
          </mxGeometry>
        </mxCell>
        <mxCell id="bAYn-XJrjukU36yBKhSO-41" value="" style="endArrow=open;html=1;rounded=0;exitX=1.002;exitY=0.466;exitDx=0;exitDy=0;exitPerimeter=0;entryX=0.004;entryY=0.544;entryDx=0;entryDy=0;entryPerimeter=0;endFill=0;endSize=12;" parent="1" source="bAYn-XJrjukU36yBKhSO-39" target="D9vonOD297P4VzLZGs3L-19" edge="1">
          <mxGeometry width="50" height="50" relative="1" as="geometry">
            <mxPoint x="815" y="427" as="sourcePoint" />
            <mxPoint x="834" y="399" as="targetPoint" />
          </mxGeometry>
        </mxCell>
        <mxCell id="akxiNjfG5JZc-TvVOoNj-1" value="Интерфейс уведомлений о находках" style="shape=umlBoundary;whiteSpace=wrap;html=1;" vertex="1" parent="1">
          <mxGeometry x="370" y="250" width="100" height="80" as="geometry" />
        </mxCell>
        <mxCell id="akxiNjfG5JZc-TvVOoNj-2" value="" style="endArrow=diamondThin;html=1;rounded=0;endFill=1;endSize=13;entryX=0.858;entryY=0.073;entryDx=0;entryDy=0;entryPerimeter=0;" edge="1" parent="1" target="D9vonOD297P4VzLZGs3L-26">
          <mxGeometry width="50" height="50" relative="1" as="geometry">
            <mxPoint x="428" y="330" as="sourcePoint" />
            <mxPoint x="428.15000000000003" y="400.00000000000017" as="targetPoint" />
          </mxGeometry>
        </mxCell>
        <mxCell id="akxiNjfG5JZc-TvVOoNj-4" value="" style="endArrow=open;html=1;rounded=0;exitX=0.93;exitY=0.818;exitDx=0;exitDy=0;exitPerimeter=0;endFill=0;endSize=12;entryX=0.179;entryY=0.341;entryDx=0;entryDy=0;entryPerimeter=0;" edge="1" parent="1" source="D9vonOD297P4VzLZGs3L-26" target="bAYn-XJrjukU36yBKhSO-22">
          <mxGeometry width="50" height="50" relative="1" as="geometry">
            <mxPoint x="543" y="522.38" as="sourcePoint" />
            <mxPoint x="619" y="575" as="targetPoint" />
            <Array as="points" />
          </mxGeometry>
        </mxCell>
        <mxCell id="akxiNjfG5JZc-TvVOoNj-5" value="" style="endArrow=open;html=1;rounded=0;strokeColor=default;align=center;verticalAlign=middle;fontFamily=Helvetica;fontSize=11;fontColor=default;labelBackgroundColor=default;endSize=12;exitX=0.894;exitY=0.886;exitDx=0;exitDy=0;exitPerimeter=0;entryX=0;entryY=0;entryDx=0;entryDy=0;dashed=1;endFill=0;" edge="1" parent="1" source="D9vonOD297P4VzLZGs3L-19" target="bAYn-XJrjukU36yBKhSO-27">
          <mxGeometry width="50" height="50" relative="1" as="geometry">
            <mxPoint x="965" y="688" as="sourcePoint" />
            <mxPoint x="1031" y="617" as="targetPoint" />
          </mxGeometry>
        </mxCell>
      </root>
    </mxGraphModel>
  </diagram>
</mxfile>
